<?xml version="1.0" standalone="no"?>
<!DOCTYPE svg PUBLIC "-//W3C//DTD SVG 20010904//EN"
 "http://www.w3.org/TR/2001/REC-SVG-20010904/DTD/svg10.dtd">
<svg version="1.0" xmlns="http://www.w3.org/2000/svg"
 width="700.000000pt" height="700.000000pt" viewBox="0 0 700.000000 700.000000"
 preserveAspectRatio="xMidYMid meet">
<metadata>
Created by potrace 1.14, written by Peter Selinger 2001-2017
</metadata>
<g transform="translate(0.000000,700.000000) scale(0.100000,-0.100000)"
fill="#000000" stroke="none">
<path d="M3403 6898 c-5 -7 -18 -35 -27 -63 -20 -54 -186 -395 -237 -485 -75
-133 -486 -756 -1012 -1535 -551 -816 -633 -945 -757 -1196 -113 -227 -181
-420 -224 -630 -24 -121 -28 -141 -41 -244 -4 -27 -9 -61 -11 -75 -5 -30 -4
-361 1 -445 11 -170 18 -217 61 -384 84 -330 261 -679 473 -932 148 -178 298
-313 491 -443 99 -67 274 -166 295 -166 6 0 15 -4 20 -9 10 -10 139 -63 210
-86 167 -56 381 -104 495 -113 109 -8 457 -8 580 1 191 13 530 116 765 232
125 62 357 200 375 224 3 4 25 22 50 41 93 71 229 207 315 316 62 77 180 249
208 304 11 19 25 42 31 50 12 15 65 122 109 220 62 138 133 394 163 595 3 22
7 42 9 45 8 12 18 173 18 275 1 265 -18 435 -69 634 -80 311 -161 507 -342
821 -80 138 -170 277 -621 950 -546 815 -742 1111 -836 1260 -43 69 -88 141
-101 160 -79 123 -149 249 -231 415 -127 256 -126 255 -139 266 -7 6 -15 5
-21 -3z m-323 -1445 c132 -49 209 -141 215 -258 3 -66 -1 -75 -39 -75 -165 2
-255 99 -281 303 -3 21 -3 43 0 47 7 11 47 4 105 -17z m643 -156 c-1 -29 -13
-72 -30 -110 -44 -93 -118 -145 -209 -146 -48 -1 -50 -5 -53 -81 -2 -72 -8
-88 -33 -96 -33 -10 -39 13 -35 126 6 123 32 193 102 265 47 48 164 97 225 92
l35 -2 -2 -48z m-507 -421 c11 -8 38 -32 60 -54 26 -26 53 -43 78 -47 39 -8
36 -10 179 93 28 21 40 23 107 20 88 -5 142 -29 204 -91 77 -78 130 -226 119
-335 -24 -245 -226 -489 -429 -518 -27 -4 -102 -7 -166 -6 -195 1 -295 38
-408 152 -218 218 -220 599 -6 753 60 43 219 63 262 33z m-945 -800 c47 -3
110 -10 140 -16 78 -16 214 -68 284 -108 67 -40 199 -165 238 -227 40 -62 67
-158 82 -287 3 -27 3 -48 0 -48 -13 0 -155 96 -295 200 -168 124 -254 177
-400 247 -165 80 -176 80 -113 -3 190 -250 390 -410 705 -563 184 -90 262
-113 383 -114 128 -1 245 14 273 36 6 5 12 6 12 2 0 -16 217 121 298 188 109
91 184 158 227 201 99 100 244 278 274 334 l12 22 -48 -22 c-71 -33 -230 -139
-297 -200 -33 -29 -115 -108 -183 -175 -114 -114 -148 -142 -138 -110 2 6 6
41 9 77 11 157 54 251 165 360 153 151 316 206 591 201 70 -2 81 -9 82 -57 1
-134 -62 -334 -147 -464 -114 -176 -252 -254 -448 -254 l-99 0 -55 -70 c-78
-99 -147 -161 -223 -199 -56 -28 -76 -32 -150 -34 -129 -3 -189 20 -440 167
-81 47 -95 50 -210 32 -64 -10 -209 -8 -263 3 -281 57 -528 345 -610 710 -8
33 -13 80 -13 105 l1 44 50 12 c28 6 81 12 120 13 38 1 71 4 73 6 2 2 9 2 15
0 7 -2 51 -6 98 -9z m2697 -545 c107 -112 187 -228 259 -381 89 -188 118 -301
129 -502 17 -325 9 -441 -36 -534 -25 -52 -37 -65 -75 -83 -25 -12 -57 -21
-72 -22 -64 -2 -68 -8 -69 -89 -3 -187 -16 -688 -19 -715 -2 -16 -3 -44 -4
-62 -2 -73 -107 -112 -166 -60 -25 21 -26 27 -32 162 -4 110 -7 1921 -4 2289
1 91 -1 91 89 -3z m-3416 -523 c2 -13 5 -84 6 -158 2 -171 9 -227 29 -234 35
-14 42 16 50 219 6 160 13 198 37 189 24 -9 27 -36 40 -343 l2 -54 37 -2 37
-3 1 67 c1 157 8 322 14 331 10 17 25 11 34 -13 5 -13 12 -90 15 -171 7 -170
11 -192 36 -199 33 -9 47 22 50 108 7 269 12 307 40 279 16 -16 19 -67 21
-289 1 -213 -3 -254 -33 -325 -26 -60 -43 -77 -110 -111 -32 -16 -58 -33 -59
-37 0 -4 -1 -244 -2 -534 -2 -474 -4 -529 -18 -544 -16 -15 -18 -15 -38 5 -12
12 -21 29 -22 39 -5 104 -7 315 -8 648 l-1 402 -57 23 c-107 43 -150 111 -162
252 -9 115 -7 449 3 465 13 21 53 14 58 -10z m998 -24 c30 -8 154 -46 275 -84
121 -37 263 -80 315 -95 52 -15 117 -36 144 -48 l48 -20 -4 -1053 c-2 -579 -6
-1056 -10 -1059 -5 -6 -116 22 -288 71 -237 68 -568 166 -580 173 -13 7 -14
80 -13 552 1 299 2 779 3 1066 l2 521 26 -4 c15 -3 52 -12 82 -20z m1877 10
c23 -6 33 -23 39 -64 8 -51 14 -466 19 -1201 l4 -757 -31 -41 c-31 -42 -78
-73 -133 -85 -16 -4 -190 -55 -385 -113 -195 -59 -370 -107 -389 -107 l-34 -1
-3 70 c-7 157 -8 2031 -1 2041 7 12 23 18 477 158 151 46 286 89 300 95 28 11
104 14 137 5z m-2111 -390 c7 -527 12 -1623 6 -1666 -10 -83 -62 -24 -70 80
-8 91 -8 1741 0 1820 4 41 14 74 29 97 13 18 25 32 27 31 2 -2 5 -165 8 -362z"/>
</g>
</svg>
