<svg xmlns="http://www.w3.org/2000/svg" width="471" height="471" version="1.2" viewBox="0 0 471 471">
	<path fill-rule="evenodd"
		d="M230.2 6.2c.5.2 3.3 5.5 6.2 11.8 2.9 6.3 7.4 15.3 10.1 20 2.7 4.7 10 16.6 16.3 26.5 6.3 9.9 17.1 26.3 24 36.5 6.9 10.2 24.3 36.1 38.7 57.5 14.4 21.4 29.2 44.2 33 50.5 3.7 6.3 9 16 11.7 21.5 2.7 5.5 6.6 15.4 8.8 22 2.1 6.6 4.8 16.5 6 22 1.4 6.6 2.3 15.5 2.7 26.5.4 13 .2 18.8-1.2 27.5-.9 6.1-2.8 15.4-4.1 20.8-1.3 5.3-3.5 12.5-4.8 15.9-1.3 3.5-4.2 10.1-6.6 14.8-2.3 4.7-7 12.6-10.3 17.5-3.3 4.9-8 11.5-10.6 14.5-2.5 3-7.7 8.6-11.6 12.4-3.9 3.8-11.9 10.2-18 14.2s-15.3 9.3-20.5 11.7c-5.2 2.5-14 5.9-19.5 7.7-5.5 1.7-14.3 4.1-19.5 5.3-7.9 1.7-12.9 2.1-29.5 2.1-15.4.1-22.1-.4-29-1.7-4.9-1-12.9-2.9-17.7-4.3-4.9-1.3-13.4-4.4-19-6.9-5.7-2.5-13.7-6.7-17.8-9.2-4.1-2.6-11.1-7.4-15.5-10.8-4.4-3.4-11.6-10-16-14.7-4.4-4.7-10.7-12.3-14-16.9-3.3-4.6-8.7-13.8-12-20.4-3.3-6.6-7.5-16.3-9.3-21.5-1.8-5.2-4.1-13.8-5.3-19-1.4-6.6-2.2-14.8-2.5-27-.5-14.4-.2-19.9 1.5-31 1.1-7.4 3.2-17.6 4.6-22.5 1.4-4.9 4.4-13.5 6.6-19 2.2-5.5 6.8-14.9 10.1-21s9.3-16.2 13.3-22.5c4.1-6.3 14.2-21.4 22.5-33.5 8.3-12.1 28.3-41.8 44.4-66 16.1-24.2 31.1-47.2 33.3-51 2.2-3.9 6.4-11.7 9.3-17.5 2.9-5.8 6-12.5 7-15 .9-2.5 2-5.3 2.4-6.3.4-1 1.2-1.7 1.8-1.5zm-29 106c.8 3.7 2.2 6.5 4.7 9.1 2.8 2.9 4.7 4 8.9 4.7 2.8.6 5.7.7 6.3.3.7-.5 1-2.6.8-5.3-.3-2.6-1.6-6.3-3.2-8.8-1.9-3-4.2-4.9-7.9-6.6-2.9-1.3-6.5-2.7-8-3-2.4-.6-2.8-.3-2.8 1.9 0 1.4.5 4.9 1.2 7.8zm33.8 3.5c-1.4 1-3.5 3.4-4.8 5.3-1.3 1.9-2.7 5-3.2 6.9-.6 1.9-1 6.3-1 9.8 0 5.5.2 6.2 2 6.2 1.3 0 2.2-.8 2.5-2.3.3-1.2.5-3.9.5-6 0-3.6.1-3.7 3.5-3.7 1.9 0 4.7-.6 6.3-1.4 1.5-.8 3.7-2.5 4.9-3.8 1.2-1.2 2.9-4.3 3.8-6.8.8-2.5 1.5-5.5 1.5-6.8 0-1.7-.6-2.2-2.7-2.2-1.6.1-4.6.7-6.8 1.5s-5.1 2.3-6.5 3.3zm-41.4 34.4c-1.7 2.4-3.6 6.3-4.3 8.8-.7 2.5-1.3 7.3-1.3 10.8 0 3.7.8 8.5 2 11.9 1.2 3.2 3.8 8 5.8 10.7 2 2.7 5.5 6.2 7.7 7.7s6 3.5 8.5 4.4c2.9 1 8.1 1.7 14.5 1.8 5.5.1 12-.4 14.5-1.1 2.5-.7 6.8-3 9.5-5 2.8-2.1 6.7-6.2 8.8-9.2 2.1-3 4.7-8.7 5.9-12.5 1.4-4.8 1.9-8.5 1.6-12-.3-2.8-1.5-7.3-2.7-10-1.2-2.8-3.4-6.3-4.9-7.8-1.5-1.6-4.4-3.7-6.4-4.8-2.4-1.2-5.8-1.9-9-1.9-4.8.1-5.7.5-9.5 4-3.2 2.9-5.2 4-7.5 4-2.6.1-4.1-.8-7-4-3.6-3.8-4.1-4-9.5-4-3.6.1-7.3.8-9.7 2-2.2 1.1-5.3 3.9-7 6.2zm-64.9 48.5c-.4.5-.3 3.7.4 7.3.6 3.6 2.2 9.4 3.6 13 1.3 3.6 4.1 9.2 6.1 12.5 2 3.3 5.9 8.4 8.7 11.3 2.7 3 7 6.5 9.5 7.9 2.5 1.5 7 3.5 10 4.5 3.4 1.1 8.3 1.8 12.8 1.8 3.9 0 9.3-.5 12-1.1 4.7-1.1 4.8-1.1 13.7 4.3 5 3 11.4 6.4 14.3 7.6 3.4 1.5 7.3 2.2 11.5 2.2 4.8 0 7.4-.6 11.6-2.7 3-1.6 7.5-5.1 9.9-7.8 2.4-2.8 5.2-6.3 6.1-7.8 1.5-2.7 1.9-2.8 6.1-2.3 2.5.4 7 .1 10-.5s7.3-2.1 9.5-3.4c2.2-1.3 5.9-4.3 8.3-6.6 2.3-2.4 5.7-7.1 7.4-10.4 1.7-3.3 3.9-8.7 4.8-12 1-3.3 2.1-8.7 2.5-12 .5-4.6.4-6.2-.7-6.7-.7-.4-4.9-.8-9.3-.8s-10.6.7-13.7 1.5c-3.2.8-8.2 2.7-11 4.2-2.9 1.4-7.5 4.7-10.3 7.3-2.8 2.7-6.3 7.4-7.9 10.6-2 4.3-3 8-3.4 13.4l-.6 7.5c4.6-3.7 7.7-6.8 9.9-9.3 2.2-2.5 7.8-7.9 12.5-12s11.5-9 15.3-10.8c3.7-1.9 6.9-3.3 7.1-3.2.2.2-1.8 3.2-4.5 6.8-2.7 3.6-8.2 10.1-12.2 14.5-4.1 4.4-12.7 12.1-19.3 17.1-7.1 5.4-14.3 10-17.9 11.4-4.1 1.5-8.9 2.5-15 2.8-7.4.4-10.3.1-16.5-1.8-4.1-1.2-12.2-4.7-18-7.8-5.8-3.1-13.2-7.4-16.5-9.6-3.3-2.2-8.9-6.7-12.4-10-3.5-3.4-9-9.4-12.2-13.4-3.3-3.9-5.6-7.4-5.1-7.7.4-.2 6.1 2.2 12.7 5.5s14.9 8.2 18.5 11c3.6 2.7 9.2 6.9 12.5 9.4 3.3 2.4 7.8 5.5 9.9 6.7l4 2.4c-1.2-10.1-2.5-15.5-3.7-18.5-1.5-3.9-3.9-7.4-8.6-12.1-4.3-4.2-8.9-7.6-13.1-9.6-3.6-1.7-9.2-3.8-12.5-4.7-3.3-1-10.5-1.9-16-2.1-5.5-.2-12.2 0-15 .5-2.7.6-5.4 1.3-5.8 1.7zm199.4 111.5c-.1 53.4.2 83.4.9 85.5.7 2.4 1.8 3.5 3.8 3.9 1.5.3 3.7.3 5 0 1.2-.3 2.8-1.6 3.5-2.9.8-1.5 1.3-10.7 1.7-31.2l.5-29c7.8-.8 10.2-1.8 12-3.5 1.5-1.4 3.3-4.9 4.2-8 1.2-4.4 1.5-9.1 1.1-23.5-.4-14.1-1-19.7-2.7-26-1.2-4.4-4.4-12.5-7.1-18-2.7-5.5-7.4-13.2-10.5-17-3.1-3.8-7.1-8.3-8.9-9.8l-3.3-2.8zM99.8 285.8c.2 14.7.5 18.2 2 21.6 1 2.2 2.7 4.7 3.8 5.7 1 .9 3.5 2.4 5.6 3.2l3.8 1.6c0 56.3.3 70.8 1 72 .5 1.1 1.9 2 3 2 1.9 0 2-.7 1.9-36.8v-36.7c6.4-3.1 8.9-4.7 9.6-5.5.7-.8 2-3.7 2.9-6.3 1.2-3.7 1.5-8.4 1.3-22-.2-15.5-.4-17.2-2-17.5-1.6-.2-1.8 1.1-2 13-.2 12.9-.3 13.3-2.5 13.5-1.6.2-2.4-.3-2.7-2-.3-1.2-.7-7.2-.8-13.2-.2-9.6-.5-11-2-11.3-1.6-.2-1.8 1.1-2 13.5l-.2 13.8h-5c-1-26.2-1.2-27-3-27-1.9 0-2.1.7-2.3 13-.2 8.3-.8 13.4-1.5 14.2-1 1.1-1.5 1.1-2.5 0-1-.9-1.3-4.6-1.3-13 0-6.4-.2-12.4-.4-13.2-.3-.8-1.1-1.5-1.9-1.5-.7 0-1.7.3-2.1.6-.5.4-.8 8.6-.7 18.3zm64.1 126.6c19.8 5.8 33 9.7 42.1 12.4 9 2.7 16.8 4.7 17.2 4.5.4-.2.8-32.4.8-71.4v-71c-4.3-2.2-8.5-3.5-12-4.4-3.6-1-14.4-4.2-24-7.3-9.7-3.1-18.9-5.8-20.6-6.1l-3.1-.5zm106.5-136.6c-10.5 3.3-21.3 6.6-24 7.2-2.8.7-6.2 1.8-7.8 2.6l-2.7 1.3c0 117.3.3 142.2 1 142.5.5.3 4.5-.6 8.7-1.9 4.3-1.3 16.1-4.9 26.3-7.9 10.2-3.1 20.1-6 22-6.4 2.3-.6 4.3-2.1 5.8-4.3l2.3-3.5c-.6-132.3-.7-133.7-2.6-135.1-1.1-.8-3.4-1.4-5-1.3-1.7 0-3.5.2-4 .4-.6.2-9.6 3.1-20 6.4zm-119.5 65.4c0 54.6.2 64.1 1.5 66.7.8 1.7 2.2 3 3 3 1.3 0 1.4-8.1.9-69.7-.3-38.4-.7-69.9-.8-70.1-.1-.2-1.2 1.1-2.4 3-2.2 3.3-2.2 3.3-2.2 67.1z" />
</svg>